<svg xmlns="http://www.w3.org/2000/svg" viewBox="0 0 64 58"><defs><style>.cls-1{fill:#f0f1f1;}.cls-2{fill:#fff;}.cls-3{fill:#3e3e3f;}</style></defs><title>logo1</title><g id="Capa_2" data-name="Capa 2"><g id="Capa_1-2" data-name="Capa 1"><path class="cls-1" d="M56,20C57.2,9.22,46.64,0,36,0,26.68,0,17,7.09,16.09,16.17A14,14,0,1,0,14,44H52A12,12,0,0,0,64,32C64,25.26,59,20,56,20Z"/><path class="cls-2" d="M36,0C26.68,0,17,7.09,16.09,16.17A14,14,0,1,0,14,44h.75L51.59,7.16A21.39,21.39,0,0,0,36,0Z"/><path class="cls-3" d="M24,30.69V50.23c-3.92-.93-8,1-8,3.77,0,2.21,2.69,4,6,4s6-1.79,6-4V33.31l12-5.25V42.23c-3.92-.93-8,1-8,3.77,0,2.21,2.69,4,6,4s6-1.79,6-4V21.94Z"/></g></g></svg>